<svg width="28" height="28" viewBox="0 0 28 28" fill="none" xmlns="http://www.w3.org/2000/svg">
<path d="M11.5677 2.32282C12.9693 1.1284 15.0307 1.1284 16.4323 2.32282L17.2856 3.04997C17.8862 3.56181 18.633 3.87114 19.4196 3.93391L20.5371 4.02309C22.3728 4.16957 23.8305 5.62724 23.977 7.4629L24.0661 8.58042C24.1289 9.36705 24.4382 10.1138 24.9501 10.7144L25.6772 11.5677C26.8716 12.9693 26.8716 15.0307 25.6772 16.4323L24.9501 17.2856C24.4382 17.8862 24.1289 18.633 24.0661 19.4196L23.977 20.5371C23.8305 22.3728 22.3728 23.8305 20.5371 23.977L19.4196 24.0661C18.633 24.1289 17.8862 24.4382 17.2856 24.9501L16.4323 25.6772C15.0307 26.8716 12.9693 26.8716 11.5677 25.6772L10.7144 24.9501C10.1138 24.4382 9.36705 24.1289 8.58042 24.0661L7.4629 23.977C5.62724 23.8305 4.16957 22.3728 4.02309 20.5371L3.93391 19.4196C3.87113 18.633 3.56181 17.8862 3.04997 17.2856L2.32282 16.4323C1.1284 15.0307 1.1284 12.9693 2.32282 11.5677L3.04997 10.7144C3.56181 10.1138 3.87113 9.36705 3.93391 8.58043L4.02309 7.4629C4.16957 5.62724 5.62724 4.16957 7.4629 4.02309L8.58042 3.93391C9.36705 3.87114 10.1138 3.56181 10.7144 3.04997L11.5677 2.32282Z" stroke="#FF9549" stroke-width="1.5"/>
</svg>
